# This file uses centimeters as units for non-parametric coordinates.

mtllib triplanar.mtl
g default
v -0.500000 0.000000 0.500000
v -0.166667 0.000000 0.500000
v 0.166667 0.000000 0.500000
v 0.500000 0.000000 0.500000
v -0.500000 0.000000 0.166667
v -0.166667 0.000000 0.166667
v 0.166667 0.000000 0.166667
v 0.500000 0.000000 0.166667
v -0.500000 0.000000 -0.166667
v -0.166667 0.000000 -0.166667
v 0.166667 0.000000 -0.166667
v 0.500000 0.000000 -0.166667
v -0.500000 0.000000 -0.500000
v -0.166667 0.000000 -0.500000
v 0.166667 0.000000 -0.500000
v 0.500000 0.000000 -0.500000
v -0.166667 0.335875 0.166667
v 0.166667 0.335875 0.166667
v 0.166667 0.335875 -0.166667
v -0.166667 0.335875 -0.166667
vt 0.300683 0.300683
vt 0.433561 0.300683
vt 0.566439 0.300683
vt 0.699317 0.300683
vt 0.300683 0.433561
vt 0.433561 0.433561
vt 0.566439 0.433561
vt 0.699317 0.433561
vt 0.300683 0.566439
vt 0.433561 0.566439
vt 0.566439 0.566439
vt 0.699317 0.566439
vt 0.300683 0.699317
vt 0.433561 0.699317
vt 0.566439 0.699317
vt 0.699317 0.699317
vt 0.433561 0.433561
vt 0.566439 0.433561
vt 0.566439 0.566439
vt 0.433561 0.566439
vn 0.000000 1.000000 0.000000
vn 0.000000 1.000000 0.000000
vn 0.000000 1.000000 0.000000
vn 0.000000 1.000000 0.000000
vn 0.000000 1.000000 0.000000
vn 0.000000 1.000000 0.000000
vn 0.000000 1.000000 0.000000
vn 0.000000 1.000000 0.000000
vn 0.000000 1.000000 0.000000
vn 0.000000 1.000000 0.000000
vn 0.000000 1.000000 0.000000
vn 0.000000 1.000000 0.000000
vn 0.000000 1.000000 0.000000
vn 0.000000 1.000000 0.000000
vn 0.000000 1.000000 0.000000
vn 0.000000 1.000000 0.000000
vn 0.000000 1.000000 0.000000
vn 0.000000 1.000000 0.000000
vn 0.000000 1.000000 0.000000
vn 0.000000 1.000000 0.000000
vn 0.000000 0.000000 1.000000
vn 0.000000 0.000000 1.000000
vn 0.000000 0.000000 1.000000
vn 0.000000 0.000000 1.000000
vn 1.000000 0.000000 0.000000
vn 1.000000 0.000000 0.000000
vn 1.000000 0.000000 0.000000
vn 1.000000 0.000000 0.000000
vn 0.000000 0.000000 -1.000000
vn 0.000000 0.000000 -1.000000
vn 0.000000 0.000000 -1.000000
vn 0.000000 0.000000 -1.000000
vn -1.000000 0.000000 0.000000
vn -1.000000 0.000000 0.000000
vn -1.000000 0.000000 0.000000
vn -1.000000 0.000000 0.000000
s 1
g pPlane1
usemtl initialShadingGroup
f 1/1/1 2/2/2 6/6/3 5/5/4
f 2/2/2 3/3/5 7/7/6 6/6/3
f 3/3/5 4/4/7 8/8/8 7/7/6
f 5/5/4 6/6/3 10/10/9 9/9/10
s off
f 17/17/11 18/18/12 19/19/13 20/20/14
s 1
f 7/7/6 8/8/8 12/12/15 11/11/16
f 9/9/10 10/10/9 14/14/17 13/13/18
f 10/10/9 11/11/16 15/15/19 14/14/17
f 11/11/16 12/12/15 16/16/20 15/15/19
s off
f 6/6/21 7/7/22 18/18/23 17/17/24
f 7/7/25 11/11/26 19/19/27 18/18/28
f 11/11/29 10/10/30 20/20/31 19/19/32
f 10/10/33 6/6/34 17/17/35 20/20/36
